<?xml version="1.0" encoding="utf-8"?>
<!-- Generator: Adobe Illustrator 21.0.2, SVG Export Plug-In . SVG Version: 6.00 Build 0)  -->
<svg version="1.1" id="Ebene_1" xmlns="http://www.w3.org/2000/svg" xmlns:xlink="http://www.w3.org/1999/xlink" x="0px" y="0px"
	 viewBox="0 0 182.4 28.9" style="enable-background:new 0 0 182.4 28.9;" xml:space="preserve">
<style type="text/css">
	.st0{fill:#FFFFFF;}
</style>
<g>
	<path class="st0" d="M1.3,27.6v-4.4c2.6,1,5.5,1.5,8.8,1.5c4,0,6-1.3,6-4c0-1.9-1.2-2.9-3.7-2.9H8c-5.3,0-8-2.4-8-7.3
		c0-5.3,3.8-8,11.3-8c2.9,0,5.7,0.4,8.3,1.3v4.4c-2.6-1-5.4-1.5-8.3-1.5C7,6.7,4.8,8,4.8,10.5c0,1.9,1.1,2.9,3.2,2.9h4.4
		c5.7,0,8.5,2.4,8.5,7.3c0,5.4-3.6,8.2-10.8,8.2C6.8,28.9,3.9,28.5,1.3,27.6z"/>
	<path class="st0" d="M26.5,2.7h5.2L39,15.3l6.9-12.5h5l-9.5,16.9v9.1h-4.8v-9.1L26.5,2.7z"/>
	<path class="st0" d="M58.2,28.7v-26h5L72,22.4l8.6-19.7h4.8v26H81V10.6l-7,18.1h-4.1l-7.2-18.1v18.1H58.2z"/>
	<path class="st0" d="M114.2,27.6c-2.2,0.8-4.8,1.3-7.6,1.3c-9.3,0-14-4.5-14-13.5c0-8.5,4.7-12.8,14-12.8c2.8,0,5.4,0.4,7.6,1.3
		v4.4c-2.2-1-4.7-1.5-7.3-1.5c-6.2,0-9.4,2.9-9.4,8.6c0,6.2,3.1,9.4,9.4,9.4c2.6,0,5-0.5,7.3-1.5V27.6z"/>
	<path class="st0" d="M158.6,28.7v-26h4.8l14.4,18.6V2.7h4.6v26h-4.8l-14.4-19v19H158.6z"/>
	<path class="st0" d="M133.8,28.8h14.4V18.5l1.7,1.7l3.3-3.3L136.3,0l0,0h0l-16.9,16.9l3.3,3.3l1.7-1.7v10.3h4.6l0-14.9l7.3-7.3
		l7.3,7.3v10.3h-5v-4.9h-4.8L133.8,28.8L133.8,28.8z"/>
</g>
</svg>
