<?xml version="1.0" encoding="utf-8"?>
<!-- Generator: Adobe Illustrator 21.0.2, SVG Export Plug-In . SVG Version: 6.00 Build 0)  -->
<svg version="1.1" id="Ebene_1" xmlns="http://www.w3.org/2000/svg" xmlns:xlink="http://www.w3.org/1999/xlink" x="0px" y="0px"
	 viewBox="0 0 226.8 226.8" style="enable-background:new 0 0 226.8 226.8;" xml:space="preserve">
<style type="text/css">
	.st0{fill:#FFFFFF;}
</style>
<path class="st0" d="M98,204.5h91v-64.8l10.5,10.5l20.6-20.6L113.9,23.2l0,0h0L7.6,129.6l20.6,20.6l10.5-10.5v64.8H68l-0.1-94l46-46
	l46,46v64.8h-31.8v-31.1H98V204.5z"/>
<path class="st0" d="M97,203.5h91v-64.8l10.5,10.5l20.6-20.6L112.9,22.2l0,0h0L6.6,128.6l20.6,20.6l10.5-10.5v64.8H67l-0.1-94l46-46
	l46,46v64.8h-31.8v-31.1H97V203.5z"/>
</svg>
